<svg xmlns="http://www.w3.org/2000/svg" viewBox="0 0 960 1280">
  <defs>
    <linearGradient id="sky" x1="0" y1="0" x2="0" y2="1">
      <stop offset="0%" stop-color="#f6ecd5"/>
      <stop offset="55%" stop-color="#dacba8"/>
      <stop offset="100%" stop-color="#c2b38d"/>
    </linearGradient>
    <radialGradient id="frost" cx="50%" cy="44%" r="64%">
      <stop offset="0%" stop-color="#eef4fb" stop-opacity="0.65"/>
      <stop offset="100%" stop-color="#eef4fb" stop-opacity="0"/>
    </radialGradient>
    <filter id="grain">
      <feTurbulence type="fractalNoise" baseFrequency="0.9" numOctaves="2" seed="9"/>
      <feColorMatrix values="1 0 0 0 0
                             0 1 0 0 0
                             0 0 1 0 0
                             0 0 0 0.045 0"/>
    </filter>
  </defs>
  <rect width="960" height="1280" fill="url(#sky)"/>
  <ellipse cx="180" cy="240" rx="90" ry="44" fill="#b8a77c" opacity=".28"/>
  <ellipse cx="730" cy="360" rx="130" ry="62" fill="#c5b68b" opacity=".34"/>
  <ellipse cx="520" cy="630" rx="160" ry="76" fill="#d4c8a8" opacity=".48"/>
  <ellipse cx="510" cy="440" rx="360" ry="260" fill="url(#frost)"/>
  <path d="M130 882c88-22 162-14 224 10 62 24 124 20 220-16 96-36 154-42 248-4v72H130z" fill="#b28d62" opacity=".28"/>
  <path d="M110 932c72-20 138-20 208 4 72 26 144 22 250-12 108-34 164-34 274 8v84H110z" fill="#f7fbff" opacity=".34"/>
  <rect width="960" height="1280" filter="url(#grain)"/>
</svg>
